# xmcd
#
# Track frame offsets:
#	150
#	12844
#	23102
#	34707
#	44380
#	54716
#	66920
#	79303
#	91846
#	103788
#	114429
#	124529
#	136328
#	144822
#	156635
# Disc length: 2272 seconds
# Revision: 1
# Processed by: cddbd v1.5.2PL0 Copyright (c) Steve Scherf et al.
#
# Submitted via: libkcddb 0.31
#
DISCID=c508de0f
DTITLE=Various Artist - Country and Western
DYEAR=1900
DGENRE=Country
TTITLE0=Lynn Anderson - Rose Garden
TTITLE1=Dave Dudley - Six Days On The Road
TTITLE2=Barbara Fairchild - Cheating Is
TTITLE3=Mickey Gilley - Fraulein
TTITLE4=Ferlin Husky - Wings Of A Dove
TTITLE5=Frankie Laine - High Noon
TTITLE6=Lynn Anderson - Stand By Your Man
TTITLE7=Oakridge Boys - In The Shelter Of His Arms
TTITLE8=Dolly Parton - Making Believe
TTITLE9=Billie Jo Spears - I'm So Lonesome I Could Cry
TTITLE10=Faron Young - Hello Walls
TTITLE11=Barbara Fairchild - You Can't Put The City In A Country Girl
TTITLE12=Waylon Jennings - Abilene
TTITLE13=Billie Jo Spears - Ease The Want In Me
TTITLE14=Willie Nelson - Home Motel
EXTD=
EXTT0=
EXTT1=
EXTT2=
EXTT3=
EXTT4=
EXTT5=
EXTT6=
EXTT7=
EXTT8=
EXTT9=
EXTT10=
EXTT11=
EXTT12=
EXTT13=
EXTT14=
PLAYORDER=
